<mxfile host="app.diagrams.net" agent="Mozilla/5.0 (Windows NT 10.0; Win64; x64) AppleWebKit/537.36 (KHTML, like Gecko) Chrome/140.0.0.0 Safari/537.36 Edg/140.0.0.0" version="28.2.3">
  <diagram name="Page-1" id="tRyP-iqxxyJB8u8W7F-R">
    <mxGraphModel dx="2094" dy="714" grid="1" gridSize="10" guides="1" tooltips="1" connect="1" arrows="1" fold="1" page="1" pageScale="1" pageWidth="850" pageHeight="1100" math="0" shadow="0">
      <root>
        <mxCell id="0" />
        <mxCell id="1" parent="0" />
        <mxCell id="VFV_-NDO9VRiK6NcbYLc-1" value="&amp;lt;&amp;lt;Entity&amp;gt;&amp;gt;&lt;br&gt;&lt;div&gt;NVTiepTan&lt;/div&gt;" style="swimlane;childLayout=stackLayout;horizontal=1;startSize=50;horizontalStack=0;rounded=1;fontSize=14;fontStyle=0;strokeWidth=2;resizeParent=0;resizeLast=1;shadow=0;dashed=0;align=center;arcSize=4;whiteSpace=wrap;html=1;" parent="1" vertex="1">
          <mxGeometry x="-70" y="110" width="150" height="60" as="geometry" />
        </mxCell>
        <mxCell id="VFV_-NDO9VRiK6NcbYLc-3" value="&amp;lt;&amp;lt;Entity&amp;gt;&amp;gt;&lt;br&gt;&lt;div&gt;NVThuThu&lt;/div&gt;" style="swimlane;childLayout=stackLayout;horizontal=1;startSize=50;horizontalStack=0;rounded=1;fontSize=14;fontStyle=0;strokeWidth=2;resizeParent=0;resizeLast=1;shadow=0;dashed=0;align=center;arcSize=4;whiteSpace=wrap;html=1;" parent="1" vertex="1">
          <mxGeometry x="-70" y="190" width="150" height="60" as="geometry" />
        </mxCell>
        <mxCell id="VFV_-NDO9VRiK6NcbYLc-4" value="&amp;lt;&amp;lt;Entity&amp;gt;&amp;gt;&lt;br&gt;&lt;div&gt;NVNhapLieu&lt;/div&gt;" style="swimlane;childLayout=stackLayout;horizontal=1;startSize=50;horizontalStack=0;rounded=1;fontSize=14;fontStyle=0;strokeWidth=2;resizeParent=0;resizeLast=1;shadow=0;dashed=0;align=center;arcSize=4;whiteSpace=wrap;html=1;" parent="1" vertex="1">
          <mxGeometry x="-70" y="260" width="150" height="60" as="geometry" />
        </mxCell>
        <mxCell id="VFV_-NDO9VRiK6NcbYLc-5" value="&amp;lt;&amp;lt;Entity&amp;gt;&amp;gt;&lt;br&gt;&lt;div&gt;Docgia&lt;/div&gt;" style="swimlane;childLayout=stackLayout;horizontal=1;startSize=50;horizontalStack=0;rounded=1;fontSize=14;fontStyle=0;strokeWidth=2;resizeParent=0;resizeLast=1;shadow=0;dashed=0;align=center;arcSize=4;whiteSpace=wrap;html=1;" parent="1" vertex="1">
          <mxGeometry x="210" y="110" width="160" height="210" as="geometry" />
        </mxCell>
        <mxCell id="VFV_-NDO9VRiK6NcbYLc-7" value="+ &amp;lt;&amp;lt;PK&amp;gt;&amp;gt; SoCMND : string&lt;div&gt;- Ho : string&lt;/div&gt;&lt;div&gt;-Ten : string&lt;/div&gt;&lt;div&gt;- Diachi : string&lt;/div&gt;&lt;div&gt;- SDT : string&lt;/div&gt;&lt;div&gt;- NoiSinh : string&lt;/div&gt;&lt;div&gt;- Ngaysinh : string&lt;/div&gt;&lt;div&gt;- email : string&lt;/div&gt;" style="text;html=1;align=left;verticalAlign=middle;resizable=0;points=[];autosize=1;strokeColor=none;fillColor=none;" parent="VFV_-NDO9VRiK6NcbYLc-5" vertex="1">
          <mxGeometry y="50" width="160" height="160" as="geometry" />
        </mxCell>
        <mxCell id="VFV_-NDO9VRiK6NcbYLc-9" value="isa" style="html=1;verticalAlign=bottom;endArrow=block;curved=0;rounded=0;entryX=0;entryY=0.19;entryDx=0;entryDy=0;entryPerimeter=0;" parent="1" target="VFV_-NDO9VRiK6NcbYLc-5" edge="1">
          <mxGeometry width="80" relative="1" as="geometry">
            <mxPoint x="80" y="150" as="sourcePoint" />
            <mxPoint x="160" y="150" as="targetPoint" />
          </mxGeometry>
        </mxCell>
        <mxCell id="VFV_-NDO9VRiK6NcbYLc-10" value="isa" style="html=1;verticalAlign=bottom;endArrow=block;curved=0;rounded=0;entryX=0;entryY=0.19;entryDx=0;entryDy=0;entryPerimeter=0;" parent="1" edge="1">
          <mxGeometry width="80" relative="1" as="geometry">
            <mxPoint x="80" y="219.5" as="sourcePoint" />
            <mxPoint x="210" y="219.5" as="targetPoint" />
          </mxGeometry>
        </mxCell>
        <mxCell id="VFV_-NDO9VRiK6NcbYLc-11" value="isa" style="html=1;verticalAlign=bottom;endArrow=block;curved=0;rounded=0;entryX=0;entryY=0.19;entryDx=0;entryDy=0;entryPerimeter=0;" parent="1" edge="1">
          <mxGeometry width="80" relative="1" as="geometry">
            <mxPoint x="80" y="289.5" as="sourcePoint" />
            <mxPoint x="210" y="289.5" as="targetPoint" />
          </mxGeometry>
        </mxCell>
        <mxCell id="VFV_-NDO9VRiK6NcbYLc-12" value="&amp;lt;&amp;lt;Entity&amp;gt;&amp;gt;&lt;div&gt;Phieumuon&lt;/div&gt;" style="swimlane;childLayout=stackLayout;horizontal=1;startSize=50;horizontalStack=0;rounded=1;fontSize=14;fontStyle=0;strokeWidth=2;resizeParent=0;resizeLast=1;shadow=0;dashed=0;align=center;arcSize=4;whiteSpace=wrap;html=1;" parent="1" vertex="1">
          <mxGeometry x="470" y="110" width="160" height="120" as="geometry" />
        </mxCell>
        <mxCell id="VFV_-NDO9VRiK6NcbYLc-13" value="+&amp;lt;&amp;lt;PK&amp;gt;&amp;gt; MaPM : string&lt;br&gt;- Ngaymuon : string&amp;nbsp;&lt;div&gt;- Ngaytra : string&lt;/div&gt;" style="align=left;strokeColor=none;fillColor=none;spacingLeft=4;spacingRight=4;fontSize=12;verticalAlign=top;resizable=0;rotatable=0;part=1;html=1;whiteSpace=wrap;" parent="VFV_-NDO9VRiK6NcbYLc-12" vertex="1">
          <mxGeometry y="50" width="160" height="70" as="geometry" />
        </mxCell>
        <mxCell id="VFV_-NDO9VRiK6NcbYLc-14" value="&amp;lt;&amp;lt;Entity&amp;gt;&amp;gt;&lt;div&gt;Phieudatmuon&lt;/div&gt;" style="swimlane;childLayout=stackLayout;horizontal=1;startSize=50;horizontalStack=0;rounded=1;fontSize=14;fontStyle=0;strokeWidth=2;resizeParent=0;resizeLast=1;shadow=0;dashed=0;align=center;arcSize=4;whiteSpace=wrap;html=1;" parent="1" vertex="1">
          <mxGeometry x="-80" y="380" width="160" height="120" as="geometry" />
        </mxCell>
        <mxCell id="VFV_-NDO9VRiK6NcbYLc-15" value="+&amp;lt;&amp;lt;PK&amp;gt;&amp;gt; MaPDM : string&lt;br&gt;- NgayDM : string&amp;nbsp;&lt;div&gt;- NgayXL : string&lt;/div&gt;" style="align=left;strokeColor=none;fillColor=none;spacingLeft=4;spacingRight=4;fontSize=12;verticalAlign=top;resizable=0;rotatable=0;part=1;html=1;whiteSpace=wrap;" parent="VFV_-NDO9VRiK6NcbYLc-14" vertex="1">
          <mxGeometry y="50" width="160" height="70" as="geometry" />
        </mxCell>
        <mxCell id="VFV_-NDO9VRiK6NcbYLc-16" value="&amp;lt;&amp;lt;Entity&amp;gt;&amp;gt;&lt;br&gt;&lt;div&gt;CTPhieumuon&lt;/div&gt;" style="swimlane;childLayout=stackLayout;horizontal=1;startSize=50;horizontalStack=0;rounded=1;fontSize=14;fontStyle=0;strokeWidth=2;resizeParent=0;resizeLast=1;shadow=0;dashed=0;align=center;arcSize=4;whiteSpace=wrap;html=1;" parent="1" vertex="1">
          <mxGeometry x="475" y="380" width="145" height="60" as="geometry" />
        </mxCell>
        <mxCell id="VFV_-NDO9VRiK6NcbYLc-17" value="&amp;lt;&amp;lt;Entity&amp;gt;&amp;gt;&lt;br&gt;&lt;div&gt;CTPhieudatmuon&lt;/div&gt;" style="swimlane;childLayout=stackLayout;horizontal=1;startSize=50;horizontalStack=0;rounded=1;fontSize=14;fontStyle=0;strokeWidth=2;resizeParent=0;resizeLast=1;shadow=0;dashed=0;align=center;arcSize=4;whiteSpace=wrap;html=1;" parent="1" vertex="1">
          <mxGeometry x="210" y="380" width="150" height="60" as="geometry" />
        </mxCell>
        <mxCell id="VFV_-NDO9VRiK6NcbYLc-18" value="&amp;lt;&amp;lt;Entity&amp;gt;&amp;gt;&lt;div&gt;Banin&lt;/div&gt;" style="swimlane;childLayout=stackLayout;horizontal=1;startSize=50;horizontalStack=0;rounded=1;fontSize=14;fontStyle=0;strokeWidth=2;resizeParent=0;resizeLast=1;shadow=0;dashed=0;align=center;arcSize=4;whiteSpace=wrap;html=1;" parent="1" vertex="1">
          <mxGeometry x="475" y="520" width="155" height="90" as="geometry" />
        </mxCell>
        <mxCell id="VFV_-NDO9VRiK6NcbYLc-19" value="+&amp;lt;&amp;lt;PK&amp;gt;&amp;gt; MaBI : string" style="align=left;strokeColor=none;fillColor=none;spacingLeft=4;spacingRight=4;fontSize=12;verticalAlign=top;resizable=0;rotatable=0;part=1;html=1;whiteSpace=wrap;" parent="VFV_-NDO9VRiK6NcbYLc-18" vertex="1">
          <mxGeometry y="50" width="155" height="40" as="geometry" />
        </mxCell>
        <mxCell id="VFV_-NDO9VRiK6NcbYLc-72" style="rounded=0;orthogonalLoop=1;jettySize=auto;html=1;entryX=0;entryY=0.5;entryDx=0;entryDy=0;endArrow=none;endFill=0;exitX=0.994;exitY=0.2;exitDx=0;exitDy=0;exitPerimeter=0;" parent="1" source="VFV_-NDO9VRiK6NcbYLc-21" target="VFV_-NDO9VRiK6NcbYLc-18" edge="1">
          <mxGeometry relative="1" as="geometry" />
        </mxCell>
        <mxCell id="VFV_-NDO9VRiK6NcbYLc-76" style="edgeStyle=orthogonalEdgeStyle;rounded=0;orthogonalLoop=1;jettySize=auto;html=1;endArrow=none;endFill=0;" parent="1" source="VFV_-NDO9VRiK6NcbYLc-21" edge="1">
          <mxGeometry relative="1" as="geometry">
            <mxPoint x="290" y="440" as="targetPoint" />
          </mxGeometry>
        </mxCell>
        <mxCell id="VFV_-NDO9VRiK6NcbYLc-21" value="&amp;lt;&amp;lt;Entity&amp;gt;&amp;gt;&lt;div&gt;Tailieu&lt;/div&gt;" style="swimlane;childLayout=stackLayout;horizontal=1;startSize=50;horizontalStack=0;rounded=1;fontSize=14;fontStyle=0;strokeWidth=2;resizeParent=0;resizeLast=1;shadow=0;dashed=0;align=center;arcSize=4;whiteSpace=wrap;html=1;" parent="1" vertex="1">
          <mxGeometry x="210" y="540" width="160" height="120" as="geometry" />
        </mxCell>
        <mxCell id="VFV_-NDO9VRiK6NcbYLc-22" value="+&amp;lt;&amp;lt;PK&amp;gt;&amp;gt; ISBN : string&lt;br&gt;- Toade : string&amp;nbsp;&lt;div&gt;- NamXB : string&lt;/div&gt;&lt;div&gt;- NhaXB : string&lt;/div&gt;" style="align=left;strokeColor=none;fillColor=none;spacingLeft=4;spacingRight=4;fontSize=12;verticalAlign=top;resizable=0;rotatable=0;part=1;html=1;whiteSpace=wrap;" parent="VFV_-NDO9VRiK6NcbYLc-21" vertex="1">
          <mxGeometry y="50" width="160" height="70" as="geometry" />
        </mxCell>
        <mxCell id="VFV_-NDO9VRiK6NcbYLc-68" style="edgeStyle=orthogonalEdgeStyle;rounded=0;orthogonalLoop=1;jettySize=auto;html=1;entryX=0;entryY=0.5;entryDx=0;entryDy=0;endArrow=diamondThin;endFill=1;strokeWidth=1;endSize=25;" parent="1" source="VFV_-NDO9VRiK6NcbYLc-23" target="VFV_-NDO9VRiK6NcbYLc-21" edge="1">
          <mxGeometry relative="1" as="geometry" />
        </mxCell>
        <mxCell id="VFV_-NDO9VRiK6NcbYLc-23" value="&amp;lt;&amp;lt;Entity&amp;gt;&amp;gt;&lt;div&gt;Multimedia&lt;/div&gt;" style="swimlane;childLayout=stackLayout;horizontal=1;startSize=50;horizontalStack=0;rounded=1;fontSize=14;fontStyle=0;strokeWidth=2;resizeParent=0;resizeLast=1;shadow=0;dashed=0;align=center;arcSize=4;whiteSpace=wrap;html=1;" parent="1" vertex="1">
          <mxGeometry x="-75" y="540" width="160" height="120" as="geometry" />
        </mxCell>
        <mxCell id="VFV_-NDO9VRiK6NcbYLc-24" value="+&amp;lt;&amp;lt;PK&amp;gt;&amp;gt; MaM : string&lt;br&gt;- File : string&amp;nbsp;&lt;div&gt;- MaLM : string&lt;/div&gt;" style="align=left;strokeColor=none;fillColor=none;spacingLeft=4;spacingRight=4;fontSize=12;verticalAlign=top;resizable=0;rotatable=0;part=1;html=1;whiteSpace=wrap;" parent="VFV_-NDO9VRiK6NcbYLc-23" vertex="1">
          <mxGeometry y="50" width="160" height="70" as="geometry" />
        </mxCell>
        <mxCell id="VFV_-NDO9VRiK6NcbYLc-25" value="&amp;lt;&amp;lt;Entity&amp;gt;&amp;gt;&lt;div&gt;Tapchi&lt;/div&gt;" style="swimlane;childLayout=stackLayout;horizontal=1;startSize=50;horizontalStack=0;rounded=1;fontSize=14;fontStyle=0;strokeWidth=2;resizeParent=0;resizeLast=1;shadow=0;dashed=0;align=center;arcSize=4;whiteSpace=wrap;html=1;" parent="1" vertex="1">
          <mxGeometry x="475" y="630" width="160" height="90" as="geometry" />
        </mxCell>
        <mxCell id="VFV_-NDO9VRiK6NcbYLc-26" value="- SoTC : string&lt;div&gt;- Linhvuc : string&lt;/div&gt;" style="align=left;strokeColor=none;fillColor=none;spacingLeft=4;spacingRight=4;fontSize=12;verticalAlign=top;resizable=0;rotatable=0;part=1;html=1;whiteSpace=wrap;" parent="VFV_-NDO9VRiK6NcbYLc-25" vertex="1">
          <mxGeometry y="50" width="160" height="40" as="geometry" />
        </mxCell>
        <mxCell id="VFV_-NDO9VRiK6NcbYLc-27" value="&amp;lt;&amp;lt;Entity&amp;gt;&amp;gt;&lt;div&gt;Quidinh&lt;/div&gt;" style="swimlane;childLayout=stackLayout;horizontal=1;startSize=50;horizontalStack=0;rounded=1;fontSize=14;fontStyle=0;strokeWidth=2;resizeParent=0;resizeLast=1;shadow=0;dashed=0;align=center;arcSize=4;whiteSpace=wrap;html=1;" parent="1" vertex="1">
          <mxGeometry x="475" y="770" width="160" height="140" as="geometry" />
        </mxCell>
        <mxCell id="VFV_-NDO9VRiK6NcbYLc-28" value="+&amp;lt;&amp;lt;PK&amp;gt;&amp;gt; MaQD : string&lt;div&gt;- Ngaycapnhat : string&lt;br&gt;- Thoigianmuon : int&amp;nbsp;&lt;div&gt;- Soluongmuon : int&lt;/div&gt;&lt;/div&gt;&lt;div&gt;- Thoigiandatmuon : int&lt;/div&gt;" style="align=left;strokeColor=none;fillColor=none;spacingLeft=4;spacingRight=4;fontSize=12;verticalAlign=top;resizable=0;rotatable=0;part=1;html=1;whiteSpace=wrap;" parent="VFV_-NDO9VRiK6NcbYLc-27" vertex="1">
          <mxGeometry y="50" width="160" height="90" as="geometry" />
        </mxCell>
        <mxCell id="VFV_-NDO9VRiK6NcbYLc-29" value="&amp;lt;&amp;lt;Entity&amp;gt;&amp;gt;&lt;div&gt;Loaimultimedia&lt;/div&gt;" style="swimlane;childLayout=stackLayout;horizontal=1;startSize=50;horizontalStack=0;rounded=1;fontSize=14;fontStyle=0;strokeWidth=2;resizeParent=0;resizeLast=1;shadow=0;dashed=0;align=center;arcSize=4;whiteSpace=wrap;html=1;" parent="1" vertex="1">
          <mxGeometry x="-75" y="740" width="160" height="90" as="geometry" />
        </mxCell>
        <mxCell id="VFV_-NDO9VRiK6NcbYLc-30" value="+&amp;lt;&amp;lt;PK&amp;gt;&amp;gt; MaLM : string&lt;div&gt;- Tenloai : string&lt;/div&gt;" style="align=left;strokeColor=none;fillColor=none;spacingLeft=4;spacingRight=4;fontSize=12;verticalAlign=top;resizable=0;rotatable=0;part=1;html=1;whiteSpace=wrap;" parent="VFV_-NDO9VRiK6NcbYLc-29" vertex="1">
          <mxGeometry y="50" width="160" height="40" as="geometry" />
        </mxCell>
        <mxCell id="VFV_-NDO9VRiK6NcbYLc-31" value="&amp;lt;&amp;lt;Entity&amp;gt;&amp;gt;&lt;br&gt;&lt;div&gt;Sach&lt;/div&gt;" style="swimlane;childLayout=stackLayout;horizontal=1;startSize=50;horizontalStack=0;rounded=1;fontSize=14;fontStyle=0;strokeWidth=2;resizeParent=0;resizeLast=1;shadow=0;dashed=0;align=center;arcSize=4;whiteSpace=wrap;html=1;" parent="1" vertex="1">
          <mxGeometry x="215" y="740" width="150" height="60" as="geometry" />
        </mxCell>
        <mxCell id="VFV_-NDO9VRiK6NcbYLc-60" style="rounded=0;orthogonalLoop=1;jettySize=auto;html=1;entryX=0.5;entryY=1;entryDx=0;entryDy=0;endArrow=none;endFill=0;" parent="1" source="VFV_-NDO9VRiK6NcbYLc-32" target="VFV_-NDO9VRiK6NcbYLc-31" edge="1">
          <mxGeometry relative="1" as="geometry" />
        </mxCell>
        <mxCell id="VFV_-NDO9VRiK6NcbYLc-32" value="Viet" style="swimlane;childLayout=stackLayout;horizontal=1;startSize=50;horizontalStack=0;rounded=1;fontSize=14;fontStyle=0;strokeWidth=2;resizeParent=0;resizeLast=1;shadow=0;dashed=0;align=center;arcSize=4;whiteSpace=wrap;html=1;" parent="1" vertex="1">
          <mxGeometry x="215" y="890" width="150" height="60" as="geometry" />
        </mxCell>
        <mxCell id="VFV_-NDO9VRiK6NcbYLc-64" style="rounded=0;orthogonalLoop=1;jettySize=auto;html=1;entryX=0.5;entryY=1;entryDx=0;entryDy=0;endArrow=none;endFill=0;" parent="1" source="VFV_-NDO9VRiK6NcbYLc-33" target="VFV_-NDO9VRiK6NcbYLc-32" edge="1">
          <mxGeometry relative="1" as="geometry" />
        </mxCell>
        <mxCell id="VFV_-NDO9VRiK6NcbYLc-33" value="&amp;lt;&amp;lt;Entity&amp;gt;&amp;gt;&lt;div&gt;Tacgia&lt;/div&gt;" style="swimlane;childLayout=stackLayout;horizontal=1;startSize=50;horizontalStack=0;rounded=1;fontSize=14;fontStyle=0;strokeWidth=2;resizeParent=0;resizeLast=1;shadow=0;dashed=0;align=center;arcSize=4;whiteSpace=wrap;html=1;" parent="1" vertex="1">
          <mxGeometry x="210" y="1020" width="160" height="120" as="geometry" />
        </mxCell>
        <mxCell id="VFV_-NDO9VRiK6NcbYLc-34" value="+&amp;lt;&amp;lt;PK&amp;gt;&amp;gt; MaTG : string&lt;div&gt;- TenTG : string&lt;br&gt;- HoTG : string&lt;div&gt;- NgaysinhTG : string&lt;/div&gt;&lt;/div&gt;&lt;div&gt;&lt;br&gt;&lt;/div&gt;" style="align=left;strokeColor=none;fillColor=none;spacingLeft=4;spacingRight=4;fontSize=12;verticalAlign=top;resizable=0;rotatable=0;part=1;html=1;whiteSpace=wrap;" parent="VFV_-NDO9VRiK6NcbYLc-33" vertex="1">
          <mxGeometry y="50" width="160" height="70" as="geometry" />
        </mxCell>
        <mxCell id="VFV_-NDO9VRiK6NcbYLc-56" style="rounded=0;orthogonalLoop=1;jettySize=auto;html=1;entryX=0;entryY=0.5;entryDx=0;entryDy=0;startArrow=none;startFill=0;endArrow=none;endFill=0;" parent="1" source="VFV_-NDO9VRiK6NcbYLc-35" target="VFV_-NDO9VRiK6NcbYLc-31" edge="1">
          <mxGeometry relative="1" as="geometry" />
        </mxCell>
        <mxCell id="VFV_-NDO9VRiK6NcbYLc-35" value="&amp;lt;&amp;lt;Entity&amp;gt;&amp;gt;&lt;div&gt;Theloai&lt;/div&gt;" style="swimlane;childLayout=stackLayout;horizontal=1;startSize=50;horizontalStack=0;rounded=1;fontSize=14;fontStyle=0;strokeWidth=2;resizeParent=0;resizeLast=1;shadow=0;dashed=0;align=center;arcSize=4;whiteSpace=wrap;html=1;" parent="1" vertex="1">
          <mxGeometry x="-80" y="900" width="160" height="90" as="geometry" />
        </mxCell>
        <mxCell id="VFV_-NDO9VRiK6NcbYLc-36" value="+&amp;lt;&amp;lt;PK&amp;gt;&amp;gt; MaTL : string&lt;div&gt;- TenTL : string&lt;/div&gt;" style="align=left;strokeColor=none;fillColor=none;spacingLeft=4;spacingRight=4;fontSize=12;verticalAlign=top;resizable=0;rotatable=0;part=1;html=1;whiteSpace=wrap;" parent="VFV_-NDO9VRiK6NcbYLc-35" vertex="1">
          <mxGeometry y="50" width="160" height="40" as="geometry" />
        </mxCell>
        <mxCell id="VFV_-NDO9VRiK6NcbYLc-37" value="isa" style="html=1;verticalAlign=bottom;endArrow=block;curved=0;rounded=0;exitX=0;exitY=0.25;exitDx=0;exitDy=0;" parent="1" source="VFV_-NDO9VRiK6NcbYLc-25" edge="1">
          <mxGeometry width="80" relative="1" as="geometry">
            <mxPoint x="720" y="680" as="sourcePoint" />
            <mxPoint x="370" y="652" as="targetPoint" />
          </mxGeometry>
        </mxCell>
        <mxCell id="VFV_-NDO9VRiK6NcbYLc-38" value="isa" style="html=1;verticalAlign=bottom;endArrow=block;curved=0;rounded=0;entryX=0.5;entryY=1;entryDx=0;entryDy=0;" parent="1" source="VFV_-NDO9VRiK6NcbYLc-31" target="VFV_-NDO9VRiK6NcbYLc-22" edge="1">
          <mxGeometry width="80" relative="1" as="geometry">
            <mxPoint x="520" y="800" as="sourcePoint" />
            <mxPoint x="650" y="800" as="targetPoint" />
          </mxGeometry>
        </mxCell>
        <mxCell id="VFV_-NDO9VRiK6NcbYLc-39" value="" style="endArrow=diamondThin;endFill=1;endSize=24;html=1;rounded=0;exitX=0.5;exitY=0;exitDx=0;exitDy=0;entryX=0.5;entryY=1;entryDx=0;entryDy=0;" parent="1" source="VFV_-NDO9VRiK6NcbYLc-16" target="VFV_-NDO9VRiK6NcbYLc-13" edge="1">
          <mxGeometry width="160" relative="1" as="geometry">
            <mxPoint x="350" y="610" as="sourcePoint" />
            <mxPoint x="510" y="610" as="targetPoint" />
          </mxGeometry>
        </mxCell>
        <mxCell id="VFV_-NDO9VRiK6NcbYLc-40" value="hasa" style="text;html=1;align=center;verticalAlign=middle;resizable=0;points=[];autosize=1;strokeColor=none;fillColor=none;" parent="1" vertex="1">
          <mxGeometry x="545" y="300" width="50" height="30" as="geometry" />
        </mxCell>
        <mxCell id="VFV_-NDO9VRiK6NcbYLc-41" value="1" style="text;html=1;align=center;verticalAlign=middle;resizable=0;points=[];autosize=1;strokeColor=none;fillColor=none;" parent="1" vertex="1">
          <mxGeometry x="555" y="240" width="30" height="30" as="geometry" />
        </mxCell>
        <mxCell id="VFV_-NDO9VRiK6NcbYLc-42" value="1...*" style="text;html=1;align=center;verticalAlign=middle;resizable=0;points=[];autosize=1;strokeColor=none;fillColor=none;" parent="1" vertex="1">
          <mxGeometry x="555" y="340" width="40" height="30" as="geometry" />
        </mxCell>
        <mxCell id="VFV_-NDO9VRiK6NcbYLc-43" value="" style="endArrow=none;html=1;rounded=0;exitX=0.5;exitY=1;exitDx=0;exitDy=0;entryX=0.458;entryY=-0.033;entryDx=0;entryDy=0;entryPerimeter=0;" parent="1" source="VFV_-NDO9VRiK6NcbYLc-16" target="VFV_-NDO9VRiK6NcbYLc-18" edge="1">
          <mxGeometry relative="1" as="geometry">
            <mxPoint x="350" y="510" as="sourcePoint" />
            <mxPoint x="510" y="510" as="targetPoint" />
          </mxGeometry>
        </mxCell>
        <mxCell id="VFV_-NDO9VRiK6NcbYLc-45" value="duoc muon" style="text;html=1;align=center;verticalAlign=middle;resizable=0;points=[];autosize=1;strokeColor=none;fillColor=none;" parent="1" vertex="1">
          <mxGeometry x="465" y="470" width="80" height="30" as="geometry" />
        </mxCell>
        <mxCell id="VFV_-NDO9VRiK6NcbYLc-46" value="1" style="text;html=1;align=center;verticalAlign=middle;resizable=0;points=[];autosize=1;strokeColor=none;fillColor=none;" parent="1" vertex="1">
          <mxGeometry x="545" y="490" width="30" height="30" as="geometry" />
        </mxCell>
        <mxCell id="VFV_-NDO9VRiK6NcbYLc-47" value="*" style="text;html=1;align=center;verticalAlign=middle;resizable=0;points=[];autosize=1;strokeColor=none;fillColor=none;" parent="1" vertex="1">
          <mxGeometry x="545" y="438" width="30" height="30" as="geometry" />
        </mxCell>
        <mxCell id="VFV_-NDO9VRiK6NcbYLc-48" value="" style="endArrow=diamondThin;endFill=1;endSize=24;html=1;rounded=0;exitX=0;exitY=0.5;exitDx=0;exitDy=0;entryX=1;entryY=0.25;entryDx=0;entryDy=0;" parent="1" source="VFV_-NDO9VRiK6NcbYLc-17" target="VFV_-NDO9VRiK6NcbYLc-14" edge="1">
          <mxGeometry width="160" relative="1" as="geometry">
            <mxPoint x="690" y="480" as="sourcePoint" />
            <mxPoint x="692" y="330" as="targetPoint" />
          </mxGeometry>
        </mxCell>
        <mxCell id="VFV_-NDO9VRiK6NcbYLc-49" value="hasa" style="text;html=1;align=center;verticalAlign=middle;resizable=0;points=[];autosize=1;strokeColor=none;fillColor=none;" parent="1" vertex="1">
          <mxGeometry x="125" y="388" width="50" height="30" as="geometry" />
        </mxCell>
        <mxCell id="VFV_-NDO9VRiK6NcbYLc-50" value="1...*" style="text;html=1;align=center;verticalAlign=middle;resizable=0;points=[];autosize=1;strokeColor=none;fillColor=none;" parent="1" vertex="1">
          <mxGeometry x="170" y="378" width="40" height="30" as="geometry" />
        </mxCell>
        <mxCell id="VFV_-NDO9VRiK6NcbYLc-51" value="1" style="text;html=1;align=center;verticalAlign=middle;resizable=0;points=[];autosize=1;strokeColor=none;fillColor=none;" parent="1" vertex="1">
          <mxGeometry x="85" y="378" width="30" height="30" as="geometry" />
        </mxCell>
        <mxCell id="VFV_-NDO9VRiK6NcbYLc-52" value="" style="endArrow=none;html=1;rounded=0;exitX=0.5;exitY=1;exitDx=0;exitDy=0;entryX=0.5;entryY=0;entryDx=0;entryDy=0;" parent="1" source="VFV_-NDO9VRiK6NcbYLc-24" target="VFV_-NDO9VRiK6NcbYLc-29" edge="1">
          <mxGeometry relative="1" as="geometry">
            <mxPoint x="123" y="712" as="sourcePoint" />
            <mxPoint x="121" y="789" as="targetPoint" />
          </mxGeometry>
        </mxCell>
        <mxCell id="VFV_-NDO9VRiK6NcbYLc-53" value="thuoc" style="text;html=1;align=center;verticalAlign=middle;resizable=0;points=[];autosize=1;strokeColor=none;fillColor=none;" parent="1" vertex="1">
          <mxGeometry x="-50" y="690" width="50" height="30" as="geometry" />
        </mxCell>
        <mxCell id="VFV_-NDO9VRiK6NcbYLc-54" value="*" style="text;html=1;align=center;verticalAlign=middle;resizable=0;points=[];autosize=1;strokeColor=none;fillColor=none;" parent="1" vertex="1">
          <mxGeometry x="10" y="660" width="30" height="30" as="geometry" />
        </mxCell>
        <mxCell id="VFV_-NDO9VRiK6NcbYLc-55" value="1" style="text;html=1;align=center;verticalAlign=middle;resizable=0;points=[];autosize=1;strokeColor=none;fillColor=none;" parent="1" vertex="1">
          <mxGeometry x="15" y="708" width="30" height="30" as="geometry" />
        </mxCell>
        <mxCell id="VFV_-NDO9VRiK6NcbYLc-57" value="thuoc" style="text;html=1;align=center;verticalAlign=middle;resizable=0;points=[];autosize=1;strokeColor=none;fillColor=none;" parent="1" vertex="1">
          <mxGeometry x="135" y="828" width="50" height="30" as="geometry" />
        </mxCell>
        <mxCell id="VFV_-NDO9VRiK6NcbYLc-58" value="*" style="text;html=1;align=center;verticalAlign=middle;resizable=0;points=[];autosize=1;strokeColor=none;fillColor=none;" parent="1" vertex="1">
          <mxGeometry x="185" y="790" width="30" height="30" as="geometry" />
        </mxCell>
        <mxCell id="VFV_-NDO9VRiK6NcbYLc-59" value="1" style="text;html=1;align=center;verticalAlign=middle;resizable=0;points=[];autosize=1;strokeColor=none;fillColor=none;" parent="1" vertex="1">
          <mxGeometry x="85" y="878" width="30" height="30" as="geometry" />
        </mxCell>
        <mxCell id="VFV_-NDO9VRiK6NcbYLc-61" value="duoc viet" style="text;html=1;align=center;verticalAlign=middle;resizable=0;points=[];autosize=1;strokeColor=none;fillColor=none;" parent="1" vertex="1">
          <mxGeometry x="215" y="830" width="70" height="30" as="geometry" />
        </mxCell>
        <mxCell id="VFV_-NDO9VRiK6NcbYLc-62" value="1" style="text;html=1;align=center;verticalAlign=middle;resizable=0;points=[];autosize=1;strokeColor=none;fillColor=none;" parent="1" vertex="1">
          <mxGeometry x="285" y="798" width="30" height="30" as="geometry" />
        </mxCell>
        <mxCell id="VFV_-NDO9VRiK6NcbYLc-63" value="0...*" style="text;html=1;align=center;verticalAlign=middle;resizable=0;points=[];autosize=1;strokeColor=none;fillColor=none;" parent="1" vertex="1">
          <mxGeometry x="290" y="858" width="40" height="30" as="geometry" />
        </mxCell>
        <mxCell id="VFV_-NDO9VRiK6NcbYLc-65" value="viet" style="text;html=1;align=center;verticalAlign=middle;resizable=0;points=[];autosize=1;strokeColor=none;fillColor=none;" parent="1" vertex="1">
          <mxGeometry x="250" y="968" width="40" height="30" as="geometry" />
        </mxCell>
        <mxCell id="VFV_-NDO9VRiK6NcbYLc-66" value="1...*" style="text;html=1;align=center;verticalAlign=middle;resizable=0;points=[];autosize=1;strokeColor=none;fillColor=none;" parent="1" vertex="1">
          <mxGeometry x="290" y="948" width="40" height="30" as="geometry" />
        </mxCell>
        <mxCell id="VFV_-NDO9VRiK6NcbYLc-67" value="1" style="text;html=1;align=center;verticalAlign=middle;resizable=0;points=[];autosize=1;strokeColor=none;fillColor=none;" parent="1" vertex="1">
          <mxGeometry x="295" y="990" width="30" height="30" as="geometry" />
        </mxCell>
        <mxCell id="VFV_-NDO9VRiK6NcbYLc-69" value="hasa" style="text;html=1;align=center;verticalAlign=middle;resizable=0;points=[];autosize=1;strokeColor=none;fillColor=none;" parent="1" vertex="1">
          <mxGeometry x="125" y="578" width="50" height="30" as="geometry" />
        </mxCell>
        <mxCell id="VFV_-NDO9VRiK6NcbYLc-70" value="*" style="text;html=1;align=center;verticalAlign=middle;resizable=0;points=[];autosize=1;strokeColor=none;fillColor=none;" parent="1" vertex="1">
          <mxGeometry x="85" y="568" width="30" height="30" as="geometry" />
        </mxCell>
        <mxCell id="VFV_-NDO9VRiK6NcbYLc-71" value="1" style="text;html=1;align=center;verticalAlign=middle;resizable=0;points=[];autosize=1;strokeColor=none;fillColor=none;" parent="1" vertex="1">
          <mxGeometry x="175" y="568" width="30" height="30" as="geometry" />
        </mxCell>
        <mxCell id="VFV_-NDO9VRiK6NcbYLc-73" value="co" style="text;html=1;align=center;verticalAlign=middle;resizable=0;points=[];autosize=1;strokeColor=none;fillColor=none;" parent="1" vertex="1">
          <mxGeometry x="400" y="538" width="40" height="30" as="geometry" />
        </mxCell>
        <mxCell id="VFV_-NDO9VRiK6NcbYLc-74" value="0...*" style="text;html=1;align=center;verticalAlign=middle;resizable=0;points=[];autosize=1;strokeColor=none;fillColor=none;" parent="1" vertex="1">
          <mxGeometry x="435" y="568" width="40" height="30" as="geometry" />
        </mxCell>
        <mxCell id="VFV_-NDO9VRiK6NcbYLc-75" value="1" style="text;html=1;align=center;verticalAlign=middle;resizable=0;points=[];autosize=1;strokeColor=none;fillColor=none;" parent="1" vertex="1">
          <mxGeometry x="370" y="568" width="30" height="30" as="geometry" />
        </mxCell>
        <mxCell id="VFV_-NDO9VRiK6NcbYLc-77" value="duoc dat" style="text;html=1;align=center;verticalAlign=middle;resizable=0;points=[];autosize=1;strokeColor=none;fillColor=none;" parent="1" vertex="1">
          <mxGeometry x="290" y="478" width="70" height="30" as="geometry" />
        </mxCell>
        <mxCell id="VFV_-NDO9VRiK6NcbYLc-78" value="*" style="text;html=1;align=center;verticalAlign=middle;resizable=0;points=[];autosize=1;strokeColor=none;fillColor=none;" parent="1" vertex="1">
          <mxGeometry x="295" y="438" width="30" height="30" as="geometry" />
        </mxCell>
        <mxCell id="VFV_-NDO9VRiK6NcbYLc-79" value="1" style="text;html=1;align=center;verticalAlign=middle;resizable=0;points=[];autosize=1;strokeColor=none;fillColor=none;" parent="1" vertex="1">
          <mxGeometry x="295" y="508" width="30" height="30" as="geometry" />
        </mxCell>
        <mxCell id="VFV_-NDO9VRiK6NcbYLc-80" style="rounded=0;orthogonalLoop=1;jettySize=auto;html=1;entryX=0;entryY=1;entryDx=0;entryDy=0;entryPerimeter=0;" parent="1" source="VFV_-NDO9VRiK6NcbYLc-14" target="VFV_-NDO9VRiK6NcbYLc-7" edge="1">
          <mxGeometry relative="1" as="geometry" />
        </mxCell>
        <mxCell id="VFV_-NDO9VRiK6NcbYLc-81" value="dat muon" style="text;html=1;align=center;verticalAlign=middle;resizable=0;points=[];autosize=1;strokeColor=none;fillColor=none;" parent="1" vertex="1">
          <mxGeometry x="105" y="318" width="70" height="30" as="geometry" />
        </mxCell>
        <mxCell id="VFV_-NDO9VRiK6NcbYLc-82" value="*" style="text;html=1;align=center;verticalAlign=middle;resizable=0;points=[];autosize=1;strokeColor=none;fillColor=none;" parent="1" vertex="1">
          <mxGeometry x="75" y="348" width="30" height="30" as="geometry" />
        </mxCell>
        <mxCell id="VFV_-NDO9VRiK6NcbYLc-83" value="1" style="text;html=1;align=center;verticalAlign=middle;resizable=0;points=[];autosize=1;strokeColor=none;fillColor=none;" parent="1" vertex="1">
          <mxGeometry x="175" y="298" width="30" height="30" as="geometry" />
        </mxCell>
        <mxCell id="VFV_-NDO9VRiK6NcbYLc-84" style="edgeStyle=orthogonalEdgeStyle;rounded=0;orthogonalLoop=1;jettySize=auto;html=1;entryX=1;entryY=0.063;entryDx=0;entryDy=0;entryPerimeter=0;endArrow=none;endFill=0;" parent="1" source="VFV_-NDO9VRiK6NcbYLc-12" target="VFV_-NDO9VRiK6NcbYLc-7" edge="1">
          <mxGeometry relative="1" as="geometry" />
        </mxCell>
        <mxCell id="VFV_-NDO9VRiK6NcbYLc-85" value="muon" style="text;html=1;align=center;verticalAlign=middle;resizable=0;points=[];autosize=1;strokeColor=none;fillColor=none;" parent="1" vertex="1">
          <mxGeometry x="395" y="148" width="50" height="30" as="geometry" />
        </mxCell>
        <mxCell id="VFV_-NDO9VRiK6NcbYLc-86" value="1" style="text;html=1;align=center;verticalAlign=middle;resizable=0;points=[];autosize=1;strokeColor=none;fillColor=none;" parent="1" vertex="1">
          <mxGeometry x="365" y="138" width="30" height="30" as="geometry" />
        </mxCell>
        <mxCell id="VFV_-NDO9VRiK6NcbYLc-87" value="*" style="text;html=1;align=center;verticalAlign=middle;resizable=0;points=[];autosize=1;strokeColor=none;fillColor=none;" parent="1" vertex="1">
          <mxGeometry x="435" y="138" width="30" height="30" as="geometry" />
        </mxCell>
      </root>
    </mxGraphModel>
  </diagram>
</mxfile>
